<?xml version="1.0" standalone="no"?>
<!DOCTYPE svg PUBLIC "-//W3C//DTD SVG 20010904//EN"
 "http://www.w3.org/TR/2001/REC-SVG-20010904/DTD/svg10.dtd">
<svg version="1.0" xmlns="http://www.w3.org/2000/svg"
 width="470.000000pt" height="470.000000pt" viewBox="0 0 470.000000 470.000000"
 preserveAspectRatio="xMidYMid meet">
<metadata>
Created by potrace 1.11, written by Peter Selinger 2001-2013
</metadata>
<g transform="translate(0.000000,470.000000) scale(0.100000,-0.100000)"
fill="#000000" stroke="none">
<path d="M1146 4370 c-302 -175 -557 -327 -567 -337 -35 -37 -349 -545 -343
-555 4 -6 3 -9 -2 -5 -5 3 -38 -40 -74 -95 -47 -75 -64 -112 -66 -142 -2 -23
-8 -120 -14 -216 -6 -96 -13 -193 -15 -215 -3 -22 -12 -146 -20 -276 l-16
-236 154 -444 c85 -244 156 -450 158 -457 2 -7 155 -158 339 -337 l335 -324
329 -133 328 -132 -153 -145 c-85 -80 -194 -185 -244 -233 l-90 -88 50 15 c28
8 309 86 625 174 316 88 609 172 650 186 41 14 300 94 575 176 275 83 507 156
516 162 9 7 212 216 450 466 352 367 436 460 443 490 4 20 51 209 103 421 l94
385 -21 115 c-12 63 -49 270 -84 460 l-62 345 -179 235 c-99 129 -239 314
-312 411 l-132 177 -243 133 c-134 73 -318 174 -410 225 l-167 92 -193 1
c-106 1 -393 6 -638 11 -245 5 -470 10 -500 10 -54 0 -65 -6 -604 -320z m1496
260 c65 0 118 -3 118 -7 0 -9 -392 -94 -425 -93 -11 0 -103 25 -205 55 l-185
55 289 -5 c159 -3 343 -5 408 -5z m-748 -49 c72 -22 164 -49 204 -61 41 -12
72 -23 70 -25 -6 -6 -621 -146 -624 -142 -8 8 192 266 205 267 8 0 74 -18 145
-39z m1229 -33 c36 -40 64 -74 63 -75 -3 -3 -629 26 -632 30 -3 3 470 115 493
116 6 1 40 -32 76 -71z m336 -118 c132 -69 241 -128 241 -132 0 -3 -12 0 -27
7 -62 31 -367 155 -371 151 -2 -3 -17 8 -34 22 -34 31 -77 87 -61 81 6 -2 119
-60 252 -129z m-1869 113 c-1 -5 -41 -53 -89 -107 l-88 -99 -239 -78 c-131
-43 -242 -78 -246 -76 -7 2 640 364 655 366 4 1 7 -2 7 -6z m1120 -254 c170
-88 310 -162 310 -163 0 -1 -169 25 -375 58 -206 33 -375 64 -375 68 0 8 122
197 127 198 2 0 142 -72 313 -161z m160 131 c151 -16 276 -30 278 -30 6 0 -78
-159 -87 -165 -9 -5 -395 164 -478 209 -39 21 -34 21 287 -14z m-671 -66 l-43
-66 -180 7 c-295 12 -295 12 1 76 142 31 260 54 262 53 2 -2 -16 -33 -40 -70z
m1311 -29 c84 -35 157 -62 161 -59 5 3 9 1 9 -4 0 -5 43 -26 96 -48 52 -21
100 -46 105 -56 5 -10 8 -68 7 -129 l-3 -110 -180 154 c-99 86 -184 153 -189
150 -5 -3 -6 -1 -3 4 7 11 -62 70 -75 65 -5 -1 -7 2 -5 6 1 5 -20 27 -46 50
-27 23 -44 42 -39 42 5 0 78 -29 162 -65z m-60 -119 c91 -82 208 -189 260
-237 l95 -89 -75 31 c-193 81 -564 240 -567 243 -2 2 17 54 44 114 40 95 49
109 63 99 8 -7 89 -79 180 -161z m-1647 14 c149 -11 279 -21 287 -23 8 -1
-111 -80 -264 -176 -152 -95 -279 -171 -280 -170 -2 2 -9 67 -15 144 -7 77
-15 164 -18 193 -4 36 -2 52 6 52 6 0 134 -9 284 -20z m-493 -14 c0 -6 -675
-436 -684 -436 -8 0 -6 132 2 189 l7 43 335 103 c184 57 336 103 338 104 1 1
2 -1 2 -3z m104 -163 c4 -60 8 -125 10 -145 4 -33 1 -37 -23 -42 -66 -13 -593
-87 -597 -84 -5 5 577 376 593 377 7 1 13 -35 17 -106z m1376 19 c74 -10 134
-21 133 -26 -2 -10 -632 -496 -643 -496 -7 0 -3 552 5 576 2 8 59 4 187 -13
100 -14 244 -32 318 -41z m-630 -263 c0 -278 -1 -301 -17 -295 -43 17 -492
301 -486 307 12 12 487 289 496 289 4 0 7 -135 7 -301z m1155 171 c88 -34 165
-63 170 -64 6 -2 24 -9 40 -15 17 -7 89 -35 160 -63 72 -27 133 -52 137 -56 7
-7 -416 -725 -430 -730 -4 -1 -41 121 -82 272 -41 151 -79 272 -84 269 -5 -4
-6 -1 -2 5 4 7 -20 110 -53 230 -34 120 -61 222 -61 225 0 4 10 3 23 -2 12 -5
94 -37 182 -71z m732 -38 c43 -55 89 -114 103 -132 14 -18 59 -76 102 -129 42
-53 75 -97 73 -99 -2 -2 -45 27 -97 65 -51 37 -118 85 -148 106 -112 76 -108
70 -116 185 -3 56 -4 102 -1 102 3 0 40 -44 84 -98z m-1009 1 c44 -154 233
-875 230 -878 -2 -2 -216 80 -476 182 -260 103 -469 190 -465 194 32 28 688
539 693 539 4 0 12 -17 18 -37z m-2502 -145 c-7 -72 -7 -74 -64 -131 -79 -81
-158 -147 -144 -121 6 12 8 24 5 28 -3 3 -1 6 5 6 6 0 52 65 102 145 51 80 94
145 97 145 3 0 3 -33 -1 -72z m824 -41 c-8 -8 -115 -73 -238 -146 l-223 -132
-106 98 c-94 86 -104 98 -82 101 36 5 653 90 659 91 2 1 -2 -5 -10 -12z m406
-149 c123 -73 221 -134 219 -136 -6 -6 -751 19 -797 27 l-37 6 187 117 c103
64 191 117 196 117 5 1 110 -58 232 -131z m2294 92 c49 -41 38 -33 218 -168
89 -67 162 -124 162 -126 0 -2 -17 -41 -38 -86 l-39 -84 -109 153 c-60 84
-120 168 -134 187 -94 130 -110 154 -103 154 4 0 24 -14 43 -30z m-85 -116
c33 -46 106 -147 163 -224 56 -76 102 -142 102 -147 0 -5 -100 -25 -222 -46
-123 -20 -234 -39 -248 -42 -77 -16 -194 -34 -198 -31 -2 3 65 123 148 268
178 307 178 308 188 308 4 0 34 -39 67 -86z m-3218 -154 c10 -14 -2 -24 -83
-74 -52 -32 -94 -61 -94 -65 0 -4 -6 -8 -12 -8 -7 0 -50 -23 -95 -51 -46 -29
-83 -50 -83 -47 0 6 183 344 207 384 l15 23 66 -73 c37 -40 72 -80 79 -89z
m-392 -95 c-70 -130 -131 -233 -135 -228 -13 16 -72 162 -69 171 5 12 323 301
327 297 2 -2 -53 -110 -123 -240z m1270 44 c242 -6 441 -12 443 -14 1 -1 -135
-109 -303 -240 -168 -131 -305 -241 -305 -245 0 -4 -8 -10 -17 -13 -10 -3
-115 -82 -233 -175 -118 -94 -218 -167 -221 -164 -4 4 -12 124 -18 267 -7 143
-15 267 -17 275 -3 8 -7 86 -10 173 l-5 159 123 -6 c68 -3 321 -11 563 -17z
m-801 -130 c3 -34 6 -83 6 -109 0 -26 3 -50 7 -54 4 -4 6 -21 5 -39 -2 -18 6
-151 17 -297 11 -145 19 -265 17 -267 -2 -3 -419 435 -484 508 l-32 37 130 82
c72 45 137 89 145 97 8 8 15 12 15 9 0 -3 34 17 76 44 42 28 80 50 84 50 4 0
10 -28 14 -61z m1532 25 c53 -20 101 -37 107 -38 7 -1 30 -10 52 -20 21 -9 46
-18 55 -20 8 -1 33 -10 54 -20 22 -9 46 -14 53 -11 8 2 12 1 9 -3 -2 -4 112
-50 255 -102 143 -51 262 -96 264 -99 4 -7 -834 -446 -839 -440 -3 4 -51 323
-63 419 -12 99 -44 328 -48 348 -3 12 -3 22 0 22 2 0 48 -16 101 -36z m2173
-253 c28 -146 49 -266 48 -268 -2 -1 -38 86 -80 195 l-77 197 20 60 c29 86 30
88 34 84 3 -2 27 -123 55 -268z m-2334 -140 c30 -195 55 -360 55 -368 0 -11
-96 -13 -547 -12 l-548 0 35 29 c19 16 143 110 275 210 132 100 245 188 250
194 6 7 15 15 21 17 31 12 283 213 277 222 -3 5 -2 7 4 4 6 -4 34 12 64 34 30
22 55 36 56 32 2 -4 28 -167 58 -362z m2114 227 c-7 -13 -152 -264 -322 -558
-171 -294 -324 -559 -341 -587 -17 -29 -33 -53 -36 -53 -3 0 -41 183 -84 408
-43 224 -89 456 -102 517 -12 60 -21 111 -19 114 3 2 143 30 312 62 257 49
590 114 601 118 1 1 -3 -9 -9 -21z m-4160 -51 c21 -63 21 -63 2 -153 -10 -49
-28 -134 -40 -188 -24 -113 -36 -137 -27 -56 3 30 8 93 11 140 13 212 16 257
21 288 3 17 7 32 9 32 2 0 13 -28 24 -63z m4360 -308 l103 -226 -77 -144 c-42
-79 -80 -147 -83 -151 -4 -4 -18 158 -31 360 -12 202 -25 376 -28 387 -13 50
21 -16 116 -226z m-4017 -35 c95 -99 199 -207 230 -240 l57 -61 -180 -107
c-99 -60 -182 -107 -184 -105 -1 2 -13 69 -25 149 -12 79 -24 154 -25 165 -2
11 -13 81 -25 155 -12 74 -25 157 -29 183 -5 26 -5 46 0 45 4 -2 86 -84 181
-184z m3843 -202 c9 -200 14 -366 11 -369 -6 -7 -620 -260 -624 -258 -1 1 131
231 295 511 164 279 299 501 300 493 1 -7 9 -178 18 -377z m-4091 228 c9 -69
31 -223 48 -343 17 -120 28 -220 25 -223 -3 -4 -202 121 -226 142 -3 3 50 250
78 364 5 19 17 75 27 123 10 50 21 83 25 75 4 -7 14 -69 23 -138z m3050 133
c2 -10 10 -45 16 -78 6 -33 50 -242 96 -464 47 -222 83 -407 82 -412 -2 -4
-181 78 -398 183 -217 104 -455 217 -528 250 -80 37 -129 65 -124 70 10 10
833 465 844 467 4 0 9 -7 12 -16z m-1389 -482 c211 -4 329 -10 328 -16 -1 -5
-11 -32 -21 -60 -40 -105 -265 -701 -274 -727 -5 -16 -14 -28 -18 -28 -8 0
-71 58 -530 485 -124 116 -262 243 -306 282 l-79 73 285 -2 c157 0 434 -4 615
-7z m2643 -239 c-29 -110 -56 -198 -60 -196 -4 3 -8 40 -8 82 0 73 3 84 57
199 32 67 59 120 61 118 2 -1 -20 -93 -50 -203z m-2111 149 c68 -34 450 -216
831 -396 67 -32 122 -61 122 -64 0 -8 -1316 -324 -1328 -320 -5 2 43 146 106
319 62 173 128 357 145 407 18 51 35 93 39 93 4 0 42 -18 85 -39z m-1607 -13
c0 -18 -7 -125 -14 -238 -8 -113 -20 -298 -27 -413 -7 -114 -16 -204 -20 -200
-20 22 -308 648 -301 655 12 12 346 226 355 227 4 1 7 -14 7 -31z m426 -288
c519 -496 580 -555 578 -558 -2 -4 -958 -142 -960 -139 -2 2 51 781 62 905 3
46 10 82 14 80 5 -2 142 -131 306 -288z m-1027 104 l61 -36 0 -146 c0 -80 -2
-143 -5 -140 -7 7 -125 358 -120 358 2 0 31 -16 64 -36z m4200 -265 l1 -156
-150 -25 c-105 -17 -147 -21 -142 -12 4 6 68 106 142 222 l135 210 7 -41 c3
-23 7 -112 7 -198z m-256 44 c-31 -49 -78 -121 -105 -161 l-49 -72 -97 52
c-53 28 -109 59 -124 68 l-28 17 223 90 c122 50 225 91 229 92 4 0 -18 -38
-49 -86z m-3479 -541 c-1 -2 -72 27 -158 65 l-156 68 0 190 c0 104 3 214 7
244 l6 53 152 -308 c84 -170 151 -310 149 -312z m2715 394 c-50 -49 -1225
-1024 -1226 -1019 -15 45 -172 647 -170 649 4 4 1376 372 1391 373 5 1 7 -1 5
-3z m388 -88 c95 -45 173 -84 173 -87 -1 -7 -924 -650 -928 -646 -4 3 571 815
577 815 3 0 83 -37 178 -82z m-353 -20 c-10 -16 -545 -721 -558 -735 -11 -13
-432 -126 -448 -121 -6 2 999 865 1010 867 2 1 0 -4 -4 -11z m706 -246 c-274
-279 -323 -328 -318 -317 4 7 266 455 283 482 2 4 220 39 224 36 3 -2 -83 -92
-189 -201z m-209 41 c-6 -10 -88 -148 -183 -308 l-174 -290 -224 4 c-124 2
-228 6 -232 10 -6 5 807 601 819 601 2 0 -1 -8 -6 -17z m-3321 -147 l164 -84
48 -113 c26 -62 46 -114 45 -115 -1 -1 -56 48 -122 109 -66 62 -163 151 -215
199 -52 49 -92 88 -89 88 3 0 79 -38 169 -84z m1029 -183 c-100 -125 -185
-228 -188 -228 -14 0 -478 331 -474 338 2 4 16 7 31 7 15 1 203 27 417 59 215
32 391 57 393 55 2 -1 -79 -105 -179 -231z m345 -112 c37 -139 66 -255 63
-257 -3 -4 -448 96 -456 102 -2 2 67 98 155 214 87 115 161 206 165 202 3 -4
36 -121 73 -261z m-850 -11 c131 -96 231 -176 223 -178 -21 -4 -338 25 -345
32 -3 3 -24 54 -48 113 -23 60 -51 132 -63 161 -12 30 -18 52 -13 50 5 -1 115
-82 246 -178z m1736 -204 c0 -2 -48 -45 -107 -97 -60 -51 -138 -119 -174 -151
l-67 -59 -123 80 c-68 45 -122 81 -119 82 10 2 585 147 588 148 1 1 2 -1 2 -3z
m-1048 -82 c170 -37 306 -69 303 -72 -7 -7 -409 -100 -416 -96 -24 14 -230
246 -214 241 11 -3 158 -36 327 -73z m-514 40 l125 -16 52 -57 c29 -31 52 -57
50 -59 -3 -3 -357 137 -364 144 -6 6 3 5 137 -12z m2096 7 c-5 -5 -144 -48
-309 -96 -165 -48 -307 -90 -315 -92 -8 -3 32 41 90 96 l105 100 219 1 c133 0
216 -4 210 -9z m-1108 -228 c46 -32 79 -60 74 -61 -12 -4 -360 35 -400 45 -19
4 7 14 100 38 69 18 129 34 133 34 5 1 46 -25 93 -56z m-306 -88 c135 -14 249
-25 254 -25 5 0 7 -2 5 -5 -7 -6 -832 -236 -835 -232 -7 6 301 287 315 287 9
0 126 -11 261 -25z"/>
</g>
</svg>
